<?xml version="1.0" encoding="UTF-8" standalone="no"?>
<svg
   xmlns:dc="http://purl.org/dc/elements/1.1/"
   xmlns:cc="http://creativecommons.org/ns#"
   xmlns:rdf="http://www.w3.org/1999/02/22-rdf-syntax-ns#"
   xmlns:svg="http://www.w3.org/2000/svg"
   xmlns="http://www.w3.org/2000/svg"
   xmlns:sodipodi="http://sodipodi.sourceforge.net/DTD/sodipodi-0.dtd"
   xmlns:inkscape="http://www.inkscape.org/namespaces/inkscape"
   width="32"
   height="32"
   viewBox="0 0 32 32"
   fill="none"
   version="1.1"
   id="svg4"
   sodipodi:docname="contacts-desktop.svg"
   inkscape:version="1.0.2 (e86c870879, 2021-01-15, custom)">
  <metadata
     id="metadata10">
    <rdf:RDF>
      <cc:Work
         rdf:about="">
        <dc:format>image/svg+xml</dc:format>
        <dc:type
           rdf:resource="http://purl.org/dc/dcmitype/StillImage" />
        <dc:title />
      </cc:Work>
    </rdf:RDF>
  </metadata>
  <defs
     id="defs8" />
  <sodipodi:namedview
     pagecolor="#ffffff"
     bordercolor="#666666"
     borderopacity="1"
     objecttolerance="10"
     gridtolerance="10"
     guidetolerance="10"
     inkscape:pageopacity="0"
     inkscape:pageshadow="2"
     inkscape:window-width="1916"
     inkscape:window-height="2053"
     id="namedview6"
     showgrid="false"
     inkscape:zoom="31.5"
     inkscape:cx="16"
     inkscape:cy="16"
     inkscape:window-x="0"
     inkscape:window-y="0"
     inkscape:window-maximized="0"
     inkscape:current-layer="svg4"
     inkscape:document-rotation="0" />
  <path
     d="m 16.006979,19.987217 c -2.825133,0 -5.115293,-2.900899 -5.115293,-6.47923 0,-3.5783981 2.29006,-6.4792308 5.115293,-6.4792308 2.824739,0 5.115196,2.9008327 5.115196,6.4792308 0,3.578331 -2.290359,6.47923 -5.115196,6.47923 z m -2.461694,1.993611 h 4.909512 c 3.861813,0 6.992812,3.718879 6.992812,8.306675 0,0.917458 -0.626199,1.661373 -1.398542,1.661373 H 7.9509195 c -0.7722956,0 -1.3985437,-0.743915 -1.3985437,-1.661373 0,-4.587796 3.1306533,-8.306675 6.9929092,-8.306675 z M 6.5523758,10.01917 c -2.1741331,0 -3.9365075,-2.2314679 -3.9365075,-4.9840228 0,-2.752547 1.7623744,-4.98402134 3.9365075,-4.98402168 2.1739355,-1.7e-7 3.9365072,2.23147468 3.9365072,4.98402168 0,2.7525549 -1.7625717,4.9840228 -3.9365072,4.9840228 z M 22.69668,13.507987 c 0,-0.339512 -0.04833,-0.662178 -0.07921,-0.991322 0.536545,-0.319079 1.127024,-0.503885 1.75155,-0.503885 h 3.042917 c 2.393496,0 4.334097,2.603254 4.334097,5.81466 0,0.642242 -0.388041,1.162974 -0.86672,1.162974 h -9.814501 c 1.002923,-1.482049 1.63188,-3.38196 1.63188,-5.482427 z m 2.750929,-3.488817 c -2.174132,0 -3.936508,-2.2314679 -3.936508,-4.9840228 0,-2.752547 1.762376,-4.9840232 3.936508,-4.98402337 2.173937,-1.7e-7 3.936509,2.23147637 3.936509,4.98402337 0,2.7525549 -1.762572,4.9840228 -3.936509,4.9840228 z M 4.5880586,12.01278 h 3.0429189 c 0.6298895,0 1.2245003,0.189194 1.7644918,0.513353 -0.030149,0.326154 -0.078378,0.645731 -0.078378,0.981854 0,2.100467 0.6289042,4.000378 1.6318787,5.482427 H 1.1207338 c -0.47867936,0 -0.86676815,-0.520732 -0.86676815,-1.162974 -3.4e-7,-3.211406 1.94040125,-5.81466 4.33409295,-5.81466 z"
     fill="#4849a1"
     id="path2"
     style="fill:#ffffff;fill-opacity:1;stroke-width:0.990307;stroke-miterlimit:4;stroke-dasharray:none" />
</svg>
