<?xml version="1.0" encoding="UTF-8" standalone="no"?>
<svg
   xmlns:dc="http://purl.org/dc/elements/1.1/"
   xmlns:cc="http://creativecommons.org/ns#"
   xmlns:rdf="http://www.w3.org/1999/02/22-rdf-syntax-ns#"
   xmlns:svg="http://www.w3.org/2000/svg"
   xmlns="http://www.w3.org/2000/svg"
   xmlns:sodipodi="http://sodipodi.sourceforge.net/DTD/sodipodi-0.dtd"
   xmlns:inkscape="http://www.inkscape.org/namespaces/inkscape"
   width="50"
   height="50"
   class="bi bi-x"
   version="1.1"
   id="svg7"
   sodipodi:docname="image.svg"
   inkscape:version="1.0.2 (e86c870879, 2021-01-15, custom)">
  <metadata
     id="metadata13">
    <rdf:RDF>
      <cc:Work
         rdf:about="">
        <dc:format>image/svg+xml</dc:format>
        <dc:type
           rdf:resource="http://purl.org/dc/dcmitype/StillImage" />
        <dc:title></dc:title>
      </cc:Work>
    </rdf:RDF>
  </metadata>
  <defs
     id="defs11" />
  <sodipodi:namedview
     pagecolor="#ffffff"
     bordercolor="#666666"
     borderopacity="1"
     objecttolerance="10"
     gridtolerance="10"
     guidetolerance="10"
     inkscape:pageopacity="0"
     inkscape:pageshadow="2"
     inkscape:window-width="3840"
     inkscape:window-height="2066"
     id="namedview9"
     showgrid="false"
     inkscape:zoom="17.819091"
     inkscape:cx="-26.940457"
     inkscape:cy="6.8263277"
     inkscape:window-x="-11"
     inkscape:window-y="-11"
     inkscape:window-maximized="1"
     inkscape:current-layer="svg7" />
  <g
     id="Layer_1"
     transform="matrix(2.4272319,0,0,2.4272319,12.862457,12.8827)">
    <title
       id="title2">Layer 1</title>
    <g
       stroke="null"
       id="svg_5">
      <path
         stroke="null"
         id="svg_4"
         fill="#6d6db4"
         d="m 8.72307,0.6245 h -7.445 c -0.68529,0 -1.24083,0.55872 -1.24083,1.24792 v 6.2396 c 0,0.68923 0.55554,1.24794 1.24083,1.24794 h 7.445 c 0.6853,0 1.24083,-0.55871 1.24083,-1.24794 V 1.87242 C 9.9639,1.18322 9.40836,0.6245 8.72307,0.6245 Z M 2.2087,1.87242 c 0.51397,0 0.93062,0.41907 0.93062,0.93594 0,0.51687 -0.41665,0.93594 -0.93062,0.93594 -0.51397,0 -0.93062,-0.41907 -0.93062,-0.93594 0,-0.51687 0.41665,-0.93594 0.93062,-0.93594 z M 8.68666,7.94728 C 8.63266,8.04873 8.52752,8.11202 8.41312,8.11202 H 1.62731 C 1.51058,8.11202 1.40371,8.04615 1.35082,7.94144 1.29787,7.83677 1.30788,7.7111 1.37668,7.61624 L 2.73384,5.74439 c 0.0584,-0.0806 0.15154,-0.12821 0.25065,-0.12821 0.09911,0 0.19225,0.04761 0.25063,0.12821 L 3.86436,6.6123 5.67336,3.88323 C 5.73089,3.7964 5.82774,3.7443 5.93145,3.7443 c 0.10375,0 0.2006,0.0521 0.25809,0.13893 L 8.67121,7.627 C 8.7347,7.72273 8.74058,7.84582 8.68666,7.94727 Z" />
    </g>
  </g>
</svg>
