<?xml version="1.0" encoding="UTF-8" standalone="no"?>
<svg
   xmlns:dc="http://purl.org/dc/elements/1.1/"
   xmlns:cc="http://creativecommons.org/ns#"
   xmlns:rdf="http://www.w3.org/1999/02/22-rdf-syntax-ns#"
   xmlns:svg="http://www.w3.org/2000/svg"
   xmlns="http://www.w3.org/2000/svg"
   xmlns:sodipodi="http://sodipodi.sourceforge.net/DTD/sodipodi-0.dtd"
   xmlns:inkscape="http://www.inkscape.org/namespaces/inkscape"
   width="40"
   height="40"
   viewBox="0 0 40 40"
   fill="none"
   version="1.1"
   id="svg4"
   sodipodi:docname="message-mobile.svg"
   inkscape:version="1.0.2 (e86c870879, 2021-01-15, custom)">
  <metadata
     id="metadata10">
    <rdf:RDF>
      <cc:Work
         rdf:about="">
        <dc:format>image/svg+xml</dc:format>
        <dc:type
           rdf:resource="http://purl.org/dc/dcmitype/StillImage" />
        <dc:title></dc:title>
      </cc:Work>
    </rdf:RDF>
  </metadata>
  <defs
     id="defs8" />
  <sodipodi:namedview
     pagecolor="#ffffff"
     bordercolor="#666666"
     borderopacity="1"
     objecttolerance="10"
     gridtolerance="10"
     guidetolerance="10"
     inkscape:pageopacity="0"
     inkscape:pageshadow="2"
     inkscape:window-width="1916"
     inkscape:window-height="2053"
     id="namedview6"
     showgrid="false"
     inkscape:zoom="25.455844"
     inkscape:cx="21.425337"
     inkscape:cy="11.050102"
     inkscape:window-x="-9"
     inkscape:window-y="0"
     inkscape:window-maximized="0"
     inkscape:current-layer="svg4" />
  <path
     d="m 20,9.9329941 c -5.961447,0 -10.7949082,4.1852209 -10.7949082,9.3479339 0,2.230274 0.9013342,4.269489 2.4035532,5.876184 -0.527095,2.263925 -2.2875924,4.280707 -2.3086762,4.303142 -0.094877,0.101173 -0.1212319,0.258434 -0.063251,0.39326 0.052667,0.134826 0.1686705,0.213492 0.3057153,0.213492 2.7935999,0 4.8914429,-1.426926 5.9298179,-2.308867 1.375703,0.550521 2.909592,0.870724 4.527749,0.870724 5.961421,0 10.794908,-4.185214 10.794908,-9.347935 C 30.794908,14.118215 25.961421,9.9329941 20,9.9329941 Z M 14.602546,20.719073 c -0.748479,0 -1.349364,-0.640406 -1.349364,-1.438145 0,-0.797737 0.600885,-1.438143 1.349364,-1.438143 0.748477,0 1.349363,0.640406 1.349363,1.438143 0,0.797739 -0.600886,1.438145 -1.349363,1.438145 z m 5.397454,0 c -0.748492,0 -1.349364,-0.640406 -1.349364,-1.438145 0,-0.797737 0.600872,-1.438143 1.349364,-1.438143 0.748491,0 1.349363,0.640406 1.349363,1.438143 0,0.797739 -0.600872,1.438145 -1.349363,1.438145 z m 5.397454,0 c -0.748492,0 -1.349364,-0.640406 -1.349364,-1.438145 0,-0.797737 0.600872,-1.438143 1.349364,-1.438143 0.748492,0 1.349364,0.640406 1.349364,1.438143 0,0.797739 -0.600872,1.438145 -1.349364,1.438145 z"
     fill="#4849a1"
     id="path2"
     style="stroke-width:0.696523" />
</svg>
