<?xml version="1.0" encoding="UTF-8" standalone="no"?>
<svg
   xmlns:dc="http://purl.org/dc/elements/1.1/"
   xmlns:cc="http://creativecommons.org/ns#"
   xmlns:rdf="http://www.w3.org/1999/02/22-rdf-syntax-ns#"
   xmlns:svg="http://www.w3.org/2000/svg"
   xmlns="http://www.w3.org/2000/svg"
   xmlns:sodipodi="http://sodipodi.sourceforge.net/DTD/sodipodi-0.dtd"
   xmlns:inkscape="http://www.inkscape.org/namespaces/inkscape"
   width="24"
   height="24"
   viewBox="0 0 24 24"
   fill="none"
   version="1.1"
   id="svg4"
   sodipodi:docname="search.svg"
   inkscape:version="1.0.2 (e86c870879, 2021-01-15, custom)">
  <metadata
     id="metadata10">
    <rdf:RDF>
      <cc:Work
         rdf:about="">
        <dc:format>image/svg+xml</dc:format>
        <dc:type
           rdf:resource="http://purl.org/dc/dcmitype/StillImage" />
      </cc:Work>
    </rdf:RDF>
  </metadata>
  <defs
     id="defs8" />
  <sodipodi:namedview
     pagecolor="#ffffff"
     bordercolor="#666666"
     borderopacity="1"
     objecttolerance="10"
     gridtolerance="10"
     guidetolerance="10"
     inkscape:pageopacity="0"
     inkscape:pageshadow="2"
     inkscape:window-width="1916"
     inkscape:window-height="2053"
     id="namedview6"
     showgrid="false"
     inkscape:zoom="14.849242"
     inkscape:cx="-8.1261525"
     inkscape:cy="8.0258951"
     inkscape:window-x="-9"
     inkscape:window-y="0"
     inkscape:window-maximized="0"
     inkscape:current-layer="svg4" />
  <path
     d="M 19.020396,17.42526 15.51407,13.918935 c 0.629643,-0.934811 0.997553,-2.060616 0.997553,-3.272441 0,-3.2392186 -2.625894,-5.8651305 -5.865129,-5.8651305 -3.2392186,0 -5.8651306,2.6259119 -5.8651306,5.8651305 0,3.239235 2.6259119,5.865129 5.8651306,5.865129 1.211825,0 2.33763,-0.36791 3.272442,-0.997553 l 3.506324,3.506326 c 0.264323,0.264321 0.692809,0.264321 0.957129,0 l 0.638007,-0.638007 c 0.264321,-0.26432 0.264321,-0.692806 0,-0.957129 z M 7.0371827,10.646494 c 0,-1.9901985 1.6191128,-3.6093113 3.6093113,-3.6093113 1.990174,0 3.609311,1.6191128 3.609311,3.6093113 0,1.990114 -1.619137,3.609311 -3.609311,3.609311 -1.9901985,0 -3.6093113,-1.619197 -3.6093113,-3.609311 z"
     fill="#6d6db4"
     id="path2"
     style="stroke-width:0.601552" />
</svg>
