<?xml version="1.0" encoding="UTF-8" standalone="no"?>
<svg
   xmlns:dc="http://purl.org/dc/elements/1.1/"
   xmlns:cc="http://creativecommons.org/ns#"
   xmlns:rdf="http://www.w3.org/1999/02/22-rdf-syntax-ns#"
   xmlns:svg="http://www.w3.org/2000/svg"
   xmlns="http://www.w3.org/2000/svg"
   xmlns:sodipodi="http://sodipodi.sourceforge.net/DTD/sodipodi-0.dtd"
   xmlns:inkscape="http://www.inkscape.org/namespaces/inkscape"
   width="24"
   height="24"
   viewBox="0 0 24 24"
   fill="none"
   version="1.1"
   id="svg4"
   sodipodi:docname="send.svg"
   inkscape:version="1.0.2 (e86c870879, 2021-01-15, custom)">
  <metadata
     id="metadata10">
    <rdf:RDF>
      <cc:Work
         rdf:about="">
        <dc:format>image/svg+xml</dc:format>
        <dc:type
           rdf:resource="http://purl.org/dc/dcmitype/StillImage" />
      </cc:Work>
    </rdf:RDF>
  </metadata>
  <defs
     id="defs8" />
  <sodipodi:namedview
     pagecolor="#ffffff"
     bordercolor="#666666"
     borderopacity="1"
     objecttolerance="10"
     gridtolerance="10"
     guidetolerance="10"
     inkscape:pageopacity="0"
     inkscape:pageshadow="2"
     inkscape:window-width="1859"
     inkscape:window-height="2054"
     id="namedview6"
     showgrid="false"
     inkscape:zoom="21"
     inkscape:cx="3.9194186"
     inkscape:cy="-2.8067032"
     inkscape:window-x="-10"
     inkscape:window-y="0"
     inkscape:window-maximized="0"
     inkscape:current-layer="svg4" />
  <path
     d="m 19.061029,5.946832 -1.767858,11.490976 c -0.04143,0.268892 -0.203715,0.50325 -0.44108,0.636664 -0.133768,0.07507 -0.283092,0.113026 -0.432477,0.113026 -0.115676,0 -0.230469,-0.0224 -0.340077,-0.06818 l -3.387685,-1.411513 -1.404857,2.107286 c -0.106779,0.160167 -0.28657,0.256339 -0.479107,0.256339 -0.317997,0 -0.575775,-0.257753 -0.575775,-0.575732 v -2.656676 c 0,-0.196587 0.06552,-0.387515 0.186209,-0.542674 L 16.419614,7.5804675 8.3077482,14.881133 5.4723818,13.699734 C 5.1616255,13.570208 4.9510019,13.275035 4.9302848,12.938789 4.9095677,12.602543 5.0813535,12.283621 5.3739616,12.116618 L 17.748984,5.0452218 c 0.295232,-0.1687477 0.659469,-0.1532236 0.939145,0.038837 0.279675,0.1920613 0.424698,0.5274279 0.3729,0.8627732 z"
     fill="#4849a1"
     fill-opacity="0.8"
     id="path2"
     style="stroke-width:0.589286" />
</svg>
