<?xml version="1.0" encoding="UTF-8" standalone="no"?>
<svg
   xmlns:dc="http://purl.org/dc/elements/1.1/"
   xmlns:cc="http://creativecommons.org/ns#"
   xmlns:rdf="http://www.w3.org/1999/02/22-rdf-syntax-ns#"
   xmlns:svg="http://www.w3.org/2000/svg"
   xmlns="http://www.w3.org/2000/svg"
   xmlns:sodipodi="http://sodipodi.sourceforge.net/DTD/sodipodi-0.dtd"
   xmlns:inkscape="http://www.inkscape.org/namespaces/inkscape"
   width="10"
   height="10"
   class="bi bi-x"
   version="1.1"
   id="svg7"
   sodipodi:docname="x.svg"
   inkscape:version="1.0.2 (e86c870879, 2021-01-15, custom)">
  <metadata
     id="metadata13">
    <rdf:RDF>
      <cc:Work
         rdf:about="">
        <dc:format>image/svg+xml</dc:format>
        <dc:type
           rdf:resource="http://purl.org/dc/dcmitype/StillImage" />
      </cc:Work>
    </rdf:RDF>
  </metadata>
  <defs
     id="defs11">
    <inkscape:perspective
       sodipodi:type="inkscape:persp3d"
       inkscape:vp_x="0 : 5 : 1"
       inkscape:vp_y="0 : 1000 : 0"
       inkscape:vp_z="10 : 5 : 1"
       inkscape:persp3d-origin="5 : 3.3333333 : 1"
       id="perspective97" />
  </defs>
  <sodipodi:namedview
     pagecolor="#ffffff"
     bordercolor="#666666"
     borderopacity="1"
     objecttolerance="10"
     gridtolerance="10"
     guidetolerance="10"
     inkscape:pageopacity="0"
     inkscape:pageshadow="2"
     inkscape:window-width="3840"
     inkscape:window-height="2066"
     id="namedview9"
     showgrid="false"
     inkscape:zoom="71.276364"
     inkscape:cx="2.9315068"
     inkscape:cy="4.8937483"
     inkscape:window-x="-11"
     inkscape:window-y="-11"
     inkscape:window-maximized="1"
     inkscape:current-layer="svg7" />
  <g
     id="g5"
     transform="matrix(0.7074402,0,0,0.72747854,1.4627998,1.3626081)"
     style="fill:#4849a1;fill-opacity:1">
    <title
       id="title2">Layer 1</title>
    <path
       id="svg_1"
       d="m 1.64613,1.64613 a 0.5,0.5 0 0 1 0.708,0 l 2.646,2.647 2.646,-2.647 a 0.5006316,0.5006316 0 0 1 0.708,0.708 l -2.647,2.646 2.647,2.646 a 0.5006316,0.5006316 0 0 1 -0.708,0.708 l -2.646,-2.647 -2.646,2.647 a 0.5006316,0.5006316 0 0 1 -0.708,-0.708 l 2.647,-2.646 -2.647,-2.646 a 0.5,0.5 0 0 1 0,-0.708 z"
       style="fill:#4849a1;fill-opacity:1" />
  </g>
</svg>
